<svg xmlns="http://www.w3.org/2000/svg" width="34" height="34"><path d="M23.4.6c-.45-.3-1.05-.6-1.65-.6-.6 0-1.35.15-1.95.45-.6.3-1.2.6-1.8 1.05-.6.3-1.05.75-1.35 1.05-.45.3-1.05.9-1.8 1.95L5.1 1.65c-.3 0-.45-.15-.9 0-.3 0-.6.15-.75.3L2.4 3.15c-.3.15-.3.3-.3.6s.15.45.45.6l8.1 5.25c-.15.3-1.05 1.2-2.4 2.85L3.3 11.7c-.6-.15-1.05.15-1.5.45l-1.65 1.8c-.15.15-.15.3-.15.45 0 .15.15.3.45.45l5.7 1.95c.6.15.9.6 1.05 1.05l1.95 5.7c.15.3.3.45.45.45.15 0 .3 0 .45-.15l1.65-1.65c.45-.45.6-.9.45-1.5l-.75-4.95c.15-.15 1.05-.9 2.85-2.25l5.25 8.1c.15.15.3.3.6.45.3 0 .45 0 .6-.15l1.2-1.2c.15-.15.3-.45.3-.75v-.9l-2.7-9.9c1.2-.9 1.8-1.5 2.1-1.8.45-.45.9-1.05 1.35-1.95.45-.75.75-1.65.9-2.55.3-.9 0-1.65-.45-2.25Z" fill="#fff" fill-rule="evenodd" data-name="Caminho 262"/></svg>