<svg xmlns="http://www.w3.org/2000/svg" width="28.095" height="33.363" viewBox="16.682 14.048 28.095 33.363"><path d="M30.73 14.048c-7.762 0-14.048.878-14.048 7.023v16.682a6.153 6.153 0 0 0 6.145 6.146l-2.634 2.634v.878h21.072v-.878l-2.634-2.634a6.153 6.153 0 0 0 6.146-6.146V21.071c0-6.145-6.287-7.023-14.048-7.023Zm-7.903 26.339a2.63 2.63 0 0 1-2.634-2.634 2.63 2.63 0 0 1 2.634-2.634 2.63 2.63 0 0 1 2.634 2.634 2.63 2.63 0 0 1-2.634 2.634Zm6.146-10.536h-8.78v-8.78h8.78v8.78Zm9.658 10.536a2.63 2.63 0 0 1-2.634-2.634 2.63 2.63 0 0 1 2.634-2.634 2.63 2.63 0 0 1 2.634 2.634 2.63 2.63 0 0 1-2.634 2.634Zm2.634-10.536h-8.78v-8.78h8.78v8.78Z" fill="#fffdfd" fill-rule="evenodd" data-name="ic_directions_transit_24px"/></svg>