<svg xmlns="http://www.w3.org/2000/svg" width="31.607" height="31.607" viewBox="14.926 13.17 31.607 31.607"><path d="M42.88 18.455a2.624 2.624 0 0 0-2.493-1.773h-4.39V13.17H25.461v3.512h-4.39a2.64 2.64 0 0 0-2.493 1.773l-3.652 10.518v14.048c0 .966.79 1.756 1.756 1.756h1.755c.966 0 1.756-.79 1.756-1.756v-1.756h21.072v1.756c0 .966.79 1.756 1.756 1.756h1.756c.966 0 1.756-.79 1.756-1.756V28.973L42.88 18.455ZM21.071 35.997a2.63 2.63 0 0 1-2.634-2.634 2.63 2.63 0 0 1 2.634-2.634 2.63 2.63 0 0 1 2.634 2.634 2.63 2.63 0 0 1-2.634 2.634Zm19.316 0a2.63 2.63 0 0 1-2.634-2.634 2.63 2.63 0 0 1 2.634-2.634 2.63 2.63 0 0 1 2.634 2.634 2.63 2.63 0 0 1-2.634 2.634Zm-21.95-8.78 2.634-7.902h19.316l2.634 7.902H18.437Z" fill="#fff" fill-rule="evenodd" data-name="ic_local_taxi_24px"/></svg>